<svg xmlns="http://www.w3.org/2000/svg" viewBox="0 0 900 560"><rect width="900" height="560" fill="#8a7558"/><g opacity=".22" fill="#53683b"><ellipse cx="70" cy="80" rx="70" ry="22" transform="rotate(-28 70 80)"/><ellipse cx="820" cy="470" rx="85" ry="26" transform="rotate(22 820 470)"/></g><g transform="translate(105 55) rotate(-2 345 220)"><rect width="690" height="440" rx="5" fill="#f4efe2"/><path d="M35 34H655M35 406H655" stroke="#d2c8b2"/><g fill="#233721"><path d="M67 54c17-24 37-23 48-17-6 19-19 31-42 31-3 0-6-6-6-14Z"/><path d="M65 56c-18-18-34-13-42-5 9 16 24 22 42 16Z"/><path d="M68 42v38" stroke="#233721" stroke-width="5"/></g><text x="130" y="55" font-family="Georgia,serif" font-size="28" fill="#273327">SCA San Isidro</text><text x="130" y="80" font-family="Arial,sans-serif" font-size="12" letter-spacing="2" fill="#596157">COOPERATIVA AGRARIA · HUELMA</text><text x="420" y="132" font-family="Georgia,serif" font-weight="bold" font-size="34" fill="#292d29">ALBARÁN DE ENTREGA</text><text x="500" y="170" font-family="Arial,sans-serif" font-size="16" fill="#4f544f">Nº 008421</text><path d="M60 195H630" stroke="#a69d89"/><g font-family="Georgia,serif" font-size="23" fill="#303530"><text x="75" y="240">Finca:</text><text x="250" y="240">Las Cenillas</text><text x="75" y="285">Fecha:</text><text x="250" y="285">12/12/2026</text><text x="75" y="330">Producto:</text><text x="250" y="330">Aceituna de molino</text><text x="75" y="375">Peso neto:</text><text x="250" y="375" font-weight="bold">1.842 kg</text></g></g></svg>